<svg xmlns="http://www.w3.org/2000/svg" class="railroad-diagram" width="1649" height="190" viewBox="0 0 1649 190"> 
	<defs>
		<style type="text/css"><![CDATA[
			svg.railroad-diagram {
                stroke: rgba(0, 122, 209, 0.95);
			}
			svg.railroad-diagram path {
				stroke-width: 2;
				stroke: rgba(0, 122, 209, 0.95);
				fill: rgba(0,0,0,0);
			}
			svg.railroad-diagram text {
				font: 14px monospace;
				text-anchor: middle;
                stroke: black;
			}
			svg.railroad-diagram text.label {
				text-anchor: start;
			}
			svg.railroad-diagram text.comment {
				font: italic 12px monospace;
			}
			svg.railroad-diagram rect {
				stroke-width: 2;
				stroke: rgba(0, 122, 209, 0.95);
				fill: rgba(0,0,0,0);
			}
		]]></style>
	</defs>

<g transform="translate(.5 .5)">
<path d="M 20 111 v 20 m 10 -20 v 20 m -10 -10 h 20.5"></path>
<g>
<path d="M40 121h0"></path>
<path d="M400 121h0"></path>
<path d="M40 121a10 10 0 0 0 10 -10v-40a10 10 0 0 1 10 -10"></path>
<g>
<path d="M60 61h0"></path>
<path d="M380 61h0"></path>
<g>
<path d="M60 61h0"></path>
<path d="M136 61h0"></path>
<path d="M60 61a10 10 0 0 0 10 -10v-10a10 10 0 0 1 10 -10"></path>
<g>
<path d="M80 31h4"></path>
<path d="M112 31h4"></path>
<rect x="84" y="20" width="28" height="22" rx="10" ry="10"></rect>
<text x="98" y="35">C</text>
</g>
<path d="M116 31a10 10 0 0 1 10 10v10a10 10 0 0 0 10 10"></path>
<path d="M60 61h20"></path>
<g>
<path d="M80 61h0"></path>
<path d="M116 61h0"></path>
<rect x="80" y="50" width="36" height="22" rx="10" ry="10"></rect>
<text x="98" y="65">Ra</text>
</g>
<path d="M116 61h20"></path>
<path d="M60 61a10 10 0 0 1 10 10v10a10 10 0 0 0 10 10"></path>
<g>
<path d="M80 91h4"></path>
<path d="M112 91h4"></path>
<rect x="84" y="80" width="28" height="22" rx="10" ry="10"></rect>
<text x="98" y="95">V</text>
</g>
<path d="M116 91a10 10 0 0 0 10 -10v-10a10 10 0 0 1 10 -10"></path>
</g>
<g>
<path d="M136 61h0"></path>
<path d="M380 61h0"></path>
<path d="M136 61a10 10 0 0 0 10 -10v0a10 10 0 0 1 10 -10"></path>
<g>
<path d="M156 41h204"></path>
</g>
<path d="M360 41a10 10 0 0 1 10 10v0a10 10 0 0 0 10 10"></path>
<path d="M136 61h20"></path>
<g>
<path d="M156 61h0"></path>
<path d="M360 61h0"></path>
<g>
<path d="M156 61h0"></path>
<path d="M264 61h0"></path>
<path d="M156 61h20"></path>
<g>
<path d="M176 61h68"></path>
</g>
<path d="M244 61h20"></path>
<path d="M156 61a10 10 0 0 1 10 10v0a10 10 0 0 0 10 10"></path>
<g>
<path d="M176 81h0"></path>
<path d="M244 81h0"></path>
<rect x="176" y="70" width="68" height="22"></rect>
<text x="210" y="85">Joiner</text>
</g>
<path d="M244 81a10 10 0 0 0 10 -10v0a10 10 0 0 1 10 -10"></path>
</g>
<path d="M264 61h10"></path>
<g>
<path d="M274 61h0"></path>
<path d="M350 61h0"></path>
<rect x="274" y="50" width="76" height="22" rx="10" ry="10"></rect>
<text x="312" y="65">Robatic</text>
</g>
<path d="M350 61h10"></path>
</g>
<path d="M360 61h20"></path>
</g>
</g>
<path d="M380 61a10 10 0 0 1 10 10v40a10 10 0 0 0 10 10"></path>
<path d="M40 121h20"></path>
<g>
<path d="M60 121h106"></path>
<path d="M274 121h106"></path>
<rect x="166" y="110" width="108" height="22" rx="10" ry="10"></rect>
<text x="220" y="125">PLACEHOLDER</text>
</g>
<path d="M380 121h20"></path>
<path d="M40 121a10 10 0 0 1 10 10v10a10 10 0 0 0 10 10"></path>
<g>
<path d="M60 151h102"></path>
<path d="M278 151h102"></path>
<rect x="162" y="140" width="116" height="22" rx="10" ry="10"></rect>
<text x="220" y="155">DOTTEDCIRCLE</text>
</g>
<path d="M380 151a10 10 0 0 0 10 -10v-10a10 10 0 0 1 10 -10"></path>
</g>
<g>
<path d="M400 121h0"></path>
<path d="M860 121h0"></path>
<path d="M400 121a10 10 0 0 0 10 -10v-29a10 10 0 0 1 10 -10"></path>
<g>
<path d="M420 72h420"></path>
</g>
<path d="M840 72a10 10 0 0 1 10 10v29a10 10 0 0 0 10 10"></path>
<path d="M400 121h20"></path>
<g>
<path d="M420 121h0"></path>
<path d="M840 121h0"></path>
<path d="M420 121h10"></path>
<g>
<path d="M430 121h0"></path>
<path d="M830 121h0"></path>
<path d="M430 121h10"></path>
<g>
<path d="M440 121h0"></path>
<path d="M500 121h0"></path>
<rect x="440" y="110" width="60" height="22" rx="10" ry="10"></rect>
<text x="470" y="125">Coeng</text>
</g>
<path d="M500 121h10"></path>
<g>
<path d="M510 121h0"></path>
<path d="M830 121h0"></path>
<g>
<path d="M510 121h0"></path>
<path d="M586 121h0"></path>
<path d="M510 121a10 10 0 0 0 10 -10v-10a10 10 0 0 1 10 -10"></path>
<g>
<path d="M530 91h4"></path>
<path d="M562 91h4"></path>
<rect x="534" y="80" width="28" height="22" rx="10" ry="10"></rect>
<text x="548" y="95">C</text>
</g>
<path d="M566 91a10 10 0 0 1 10 10v10a10 10 0 0 0 10 10"></path>
<path d="M510 121h20"></path>
<g>
<path d="M530 121h0"></path>
<path d="M566 121h0"></path>
<rect x="530" y="110" width="36" height="22" rx="10" ry="10"></rect>
<text x="548" y="125">Ra</text>
</g>
<path d="M566 121h20"></path>
<path d="M510 121a10 10 0 0 1 10 10v10a10 10 0 0 0 10 10"></path>
<g>
<path d="M530 151h4"></path>
<path d="M562 151h4"></path>
<rect x="534" y="140" width="28" height="22" rx="10" ry="10"></rect>
<text x="548" y="155">V</text>
</g>
<path d="M566 151a10 10 0 0 0 10 -10v-10a10 10 0 0 1 10 -10"></path>
</g>
<g>
<path d="M586 121h0"></path>
<path d="M830 121h0"></path>
<path d="M586 121a10 10 0 0 0 10 -10v0a10 10 0 0 1 10 -10"></path>
<g>
<path d="M606 101h204"></path>
</g>
<path d="M810 101a10 10 0 0 1 10 10v0a10 10 0 0 0 10 10"></path>
<path d="M586 121h20"></path>
<g>
<path d="M606 121h0"></path>
<path d="M810 121h0"></path>
<g>
<path d="M606 121h0"></path>
<path d="M714 121h0"></path>
<path d="M606 121h20"></path>
<g>
<path d="M626 121h68"></path>
</g>
<path d="M694 121h20"></path>
<path d="M606 121a10 10 0 0 1 10 10v0a10 10 0 0 0 10 10"></path>
<g>
<path d="M626 141h0"></path>
<path d="M694 141h0"></path>
<rect x="626" y="130" width="68" height="22"></rect>
<text x="660" y="145">Joiner</text>
</g>
<path d="M694 141a10 10 0 0 0 10 -10v0a10 10 0 0 1 10 -10"></path>
</g>
<path d="M714 121h10"></path>
<g>
<path d="M724 121h0"></path>
<path d="M800 121h0"></path>
<rect x="724" y="110" width="76" height="22" rx="10" ry="10"></rect>
<text x="762" y="125">Robatic</text>
</g>
<path d="M800 121h10"></path>
</g>
<path d="M810 121h20"></path>
</g>
</g>
</g>
<path d="M830 121h10"></path>
<path d="M430 121a10 10 0 0 0 -10 10v29a10 10 0 0 0 10 10"></path>
<g>
<path d="M430 170h400"></path>
</g>
<path d="M830 170a10 10 0 0 0 10 -10v-29a10 10 0 0 0 -10 -10"></path>
</g>
<path d="M840 121h20"></path>
</g>
<g>
<path d="M860 121h0"></path>
<path d="M1608 121h0"></path>
<path d="M860 121a10 10 0 0 0 10 -10v-50a10 10 0 0 1 10 -10"></path>
<g>
<path d="M880 51h324"></path>
<path d="M1264 51h324"></path>
<rect x="1204" y="40" width="60" height="22" rx="10" ry="10"></rect>
<text x="1234" y="55">Coeng</text>
</g>
<path d="M1588 51a10 10 0 0 1 10 10v50a10 10 0 0 0 10 10"></path>
<path d="M860 121h20"></path>
<g>
<path d="M880 121h0"></path>
<path d="M1588 121h0"></path>
<g>
<path d="M880 121h0"></path>
<path d="M1008 121h0"></path>
<path d="M880 121a10 10 0 0 0 10 -10v0a10 10 0 0 1 10 -10"></path>
<g>
<path d="M900 101h88"></path>
</g>
<path d="M988 101a10 10 0 0 1 10 10v0a10 10 0 0 0 10 10"></path>
<path d="M880 121h20"></path>
<g>
<path d="M900 121h0"></path>
<path d="M988 121h0"></path>
<path d="M900 121h10"></path>
<g>
<path d="M910 121h0"></path>
<path d="M978 121h0"></path>
<rect x="910" y="110" width="68" height="22"></rect>
<text x="944" y="125">Xgroup</text>
</g>
<path d="M978 121h10"></path>
<path d="M910 121a10 10 0 0 0 -10 10v0a10 10 0 0 0 10 10"></path>
<g>
<path d="M910 141h68"></path>
</g>
<path d="M978 141a10 10 0 0 0 10 -10v0a10 10 0 0 0 -10 -10"></path>
</g>
<path d="M988 121h20"></path>
</g>
<path d="M1008 121h10"></path>
<g>
<path d="M1018 121h0"></path>
<path d="M1126 121h0"></path>
<rect x="1018" y="110" width="108" height="22"></rect>
<text x="1072" y="125">matra&#95;group</text>
</g>
<path d="M1126 121h10"></path>
<g>
<path d="M1136 121h0"></path>
<path d="M1264 121h0"></path>
<path d="M1136 121a10 10 0 0 0 10 -10v0a10 10 0 0 1 10 -10"></path>
<g>
<path d="M1156 101h88"></path>
</g>
<path d="M1244 101a10 10 0 0 1 10 10v0a10 10 0 0 0 10 10"></path>
<path d="M1136 121h20"></path>
<g>
<path d="M1156 121h0"></path>
<path d="M1244 121h0"></path>
<path d="M1156 121h10"></path>
<g>
<path d="M1166 121h0"></path>
<path d="M1234 121h0"></path>
<rect x="1166" y="110" width="68" height="22"></rect>
<text x="1200" y="125">Xgroup</text>
</g>
<path d="M1234 121h10"></path>
<path d="M1166 121a10 10 0 0 0 -10 10v0a10 10 0 0 0 10 10"></path>
<g>
<path d="M1166 141h68"></path>
</g>
<path d="M1234 141a10 10 0 0 0 10 -10v0a10 10 0 0 0 -10 -10"></path>
</g>
<path d="M1244 121h20"></path>
</g>
<g>
<path d="M1264 121h0"></path>
<path d="M1460 121h0"></path>
<path d="M1264 121a10 10 0 0 0 10 -10v-29a10 10 0 0 1 10 -10"></path>
<g>
<path d="M1284 72h156"></path>
</g>
<path d="M1440 72a10 10 0 0 1 10 10v29a10 10 0 0 0 10 10"></path>
<path d="M1264 121h20"></path>
<g>
<path d="M1284 121h0"></path>
<path d="M1440 121h0"></path>
<path d="M1284 121h10"></path>
<g>
<path d="M1294 121h0"></path>
<path d="M1354 121h0"></path>
<rect x="1294" y="110" width="60" height="22" rx="10" ry="10"></rect>
<text x="1324" y="125">Coeng</text>
</g>
<path d="M1354 121h10"></path>
<g>
<path d="M1364 121h0"></path>
<path d="M1440 121h0"></path>
<path d="M1364 121a10 10 0 0 0 10 -10v-10a10 10 0 0 1 10 -10"></path>
<g>
<path d="M1384 91h4"></path>
<path d="M1416 91h4"></path>
<rect x="1388" y="80" width="28" height="22" rx="10" ry="10"></rect>
<text x="1402" y="95">C</text>
</g>
<path d="M1420 91a10 10 0 0 1 10 10v10a10 10 0 0 0 10 10"></path>
<path d="M1364 121h20"></path>
<g>
<path d="M1384 121h0"></path>
<path d="M1420 121h0"></path>
<rect x="1384" y="110" width="36" height="22" rx="10" ry="10"></rect>
<text x="1402" y="125">Ra</text>
</g>
<path d="M1420 121h20"></path>
<path d="M1364 121a10 10 0 0 1 10 10v10a10 10 0 0 0 10 10"></path>
<g>
<path d="M1384 151h4"></path>
<path d="M1416 151h4"></path>
<rect x="1388" y="140" width="28" height="22" rx="10" ry="10"></rect>
<text x="1402" y="155">V</text>
</g>
<path d="M1420 151a10 10 0 0 0 10 -10v-10a10 10 0 0 1 10 -10"></path>
</g>
</g>
<path d="M1440 121h20"></path>
</g>
<g>
<path d="M1460 121h0"></path>
<path d="M1588 121h0"></path>
<path d="M1460 121a10 10 0 0 0 10 -10v0a10 10 0 0 1 10 -10"></path>
<g>
<path d="M1480 101h88"></path>
</g>
<path d="M1568 101a10 10 0 0 1 10 10v0a10 10 0 0 0 10 10"></path>
<path d="M1460 121h20"></path>
<g>
<path d="M1480 121h0"></path>
<path d="M1568 121h0"></path>
<path d="M1480 121h10"></path>
<g>
<path d="M1490 121h0"></path>
<path d="M1558 121h0"></path>
<rect x="1490" y="110" width="68" height="22"></rect>
<text x="1524" y="125">Ygroup</text>
</g>
<path d="M1558 121h10"></path>
<path d="M1490 121a10 10 0 0 0 -10 10v0a10 10 0 0 0 10 10"></path>
<g>
<path d="M1490 141h68"></path>
</g>
<path d="M1558 141a10 10 0 0 0 10 -10v0a10 10 0 0 0 -10 -10"></path>
</g>
<path d="M1568 121h20"></path>
</g>
</g>
<path d="M1588 121h20"></path>
</g>
<path d="M 1608 121 h 20 m -10 -10 v 20 m 10 -20 v 20"></path>
</g>
</svg>
